# xmcd CD database file
#
# Track frame offsets:
#	150
#	4055
#	11032
#	18027
#	28107
#	35117
#	45212
#	69060
#	76050
#	83072
#	93202
#	100017
#	106995
#	117135
#
# Disc length: 1612 seconds
#
# Revision: 0
# Processed by: cddbd v1.4PL0 Copyright (c) Steve Scherf et al.
# Submitted via: CDex 1.40Release
#
DISCID=8c064a0e
DTITLE=銀星制作 - 一日學曉唱國歌
DYEAR=1997
DGENRE=Country
TTITLE0=國歌-樂團演奏
TTITLE1=國歌-樂團演奏延長版
TTITLE2=國歌-大合唱版
TTITLE3=國歌-合唱重唱版
TTITLE4=國歌-樂團伴唱版
TTITLE5=國歌-樂團伴唱重唱版
TTITLE6=國歌歌詞學習課堂
TTITLE7=國歌-歌詞朗讀版
TTITLE8=國歌-兒童合唱版
TTITLE9=國歌-兒童合唱重唱版
TTITLE10=國歌-歌詞朗讀兒童版
TTITLE11=國歌-樂團伴唱兒童版
TTITLE12=國歌-樂團伴唱重唱版
TTITLE13=國歌-樂團演奏原裝版
EXTD=YEAR: 1997 ID3G: 2
EXTT0=
EXTT1=
EXTT2=
EXTT3=
EXTT4=
EXTT5=
EXTT6=
EXTT7=
EXTT8=
EXTT9=
EXTT10=
EXTT11=
EXTT12=
EXTT13=
PLAYORDER=
